<svg aria-hidden="true" style="position: absolute; width: 0; height: 0; overflow: hidden;" version="1.1" xmlns="http://www.w3.org/2000/svg" xmlns:xlink="http://www.w3.org/1999/xlink">
<defs>
<symbol id="nova" viewBox="0 0 82 32">
<path fill="#eef4f6" style="fill: var(--color1, #eef4f6)" d="M3.911 0h73.956c1.964 0 3.556 1.592 3.556 3.556v24.889c0 1.964-1.592 3.556-3.556 3.556h-73.956c-1.964 0-3.556-1.592-3.556-3.556v-24.889c0-1.964 1.592-3.556 3.556-3.556z"></path>
<path fill="#ed1c24" style="fill: var(--color2, #ed1c24)" d="M37.171 8.952c0 0 0 0 1.256 0 0.458 0 0.688 0.226 0.688 0.737 0 0 0 0 0 1.809 0 0 0 0 2.461 0 0 0 0 0 0-1.809 0-0.511 0.227-0.737 0.743-0.737 0 0 0 0 1.201 0 0 0 0 0 0 1.189 0 0 0 0-0.513 0l-0.059 0.058c0 0 0 0 0 5.093 0 0 0 0-1.373 0 0 0 0 0 0-2.546 0 0 0 0-2.461 0 0 0 0 0 0 2.546 0 0 0 0-1.373 0 0 0 0 0 0-5.093 0 0 0-0.058-0.059-0.058 0 0 0 0-0.513 0 0 0 0 0 0-1.189z"></path>
<path fill="#ed1c24" style="fill: var(--color2, #ed1c24)" d="M47.125 8.839l0.031 0.003v1.306l-0.031-0.007c-1.029 0-1.831 0.85-1.831 1.926 0 1.131 0.802 2.036 1.831 2.036l0.031-0.007v1.306l-0.031 0.003c-1.831 0-3.318-1.47-3.318-3.338 0-1.813 1.487-3.228 3.318-3.228z"></path>
<path fill="#ed1c24" style="fill: var(--color2, #ed1c24)" d="M47.156 8.842l0.636 0.062c1.511 0.295 2.651 1.576 2.651 3.163 0 1.631-1.14 2.964-2.651 3.269l-0.636 0.065v-1.306l0.699-0.151c0.675-0.308 1.16-1.032 1.16-1.878 0-0.809-0.485-1.487-1.16-1.775l-0.699-0.144v-1.306z"></path>
<path fill="#ed1c24" style="fill: var(--color2, #ed1c24)" d="M50.729 8.952c0 0 0 0 1.917 0h0.916v1.189h-0.086c-0.114 0-0.344 0-0.802 0 0 0 0 0 0 1.302 0 0 0 0 0.389 0h0.499v1.131h-0.293c-0.144 0-0.337 0-0.596 0 0 0 0 0 0 1.415 0 0.058 0 0.058 0.059 0.058 0 0 0 0 0.41 0h0.42v1.244h-0.12c-0.207 0-0.623 0-1.453 0-0.458 0-0.685-0.226-0.685-0.737v-4.414c0 0 0 0-0.575 0 0 0 0 0 0-1.189z"></path>
<path fill="#ed1c24" style="fill: var(--color2, #ed1c24)" d="M53.562 8.952h0.028c1.26 0 2.003 0.679 2.003 1.7 0 0.62-0.286 1.018-0.572 1.302 0.516 0.226 0.857 0.792 0.857 1.412 0 1.189-0.916 1.926-2.231 1.926 0 0 0 0-0.024 0h-0.062v-1.244h0.141c0.458 0 0.747-0.284 0.747-0.737s-0.289-0.737-0.747-0.737c0 0 0 0-0.127 0h-0.014v-1.131h0.028c0.403 0 0.63-0.284 0.63-0.679 0-0.398-0.227-0.624-0.63-0.624 0 0 0 0-0.014 0h-0.014v-1.189z"></path>
<path fill="#ed1c24" style="fill: var(--color2, #ed1c24)" d="M58.512 8.952c0 0 0 0 0.578 0h0.107v1.813c-0.055 0.113-0.114 0.281-0.114 0.452 0 0 0 0-0.458 1.302 0 0 0 0 0.485 0h0.086v1.186h-0.31c-0.176 0-0.375 0-0.602 0 0 0 0 0-0.403 1.021-0.114 0.394-0.341 0.565-0.799 0.565 0 0 0 0-0.86 0 0 0 0 0 0-1.244 0 0 0 0 0.286 0 0.117 0 0.117 0 0.172-0.058 0 0 0 0 1.831-5.038z"></path>
<path fill="#ed1c24" style="fill: var(--color2, #ed1c24)" d="M59.196 8.952h0.688c0 0 0 0 1.832 5.038 0.055 0.058 0.055 0.058 0.168 0.058 0 0 0 0 0.231 0 0 0 0 0 0 1.244 0 0 0 0-0.802 0-0.458 0-0.685-0.171-0.802-0.624 0 0 0 0-0.399-0.963 0 0 0 0-0.771 0h-0.145v-1.186h0.572c0 0 0 0-0.454-1.302 0-0.171-0.059-0.339-0.117-0.452v-1.813z"></path>
<path fill="#ed1c24" style="fill: var(--color2, #ed1c24)" d="M37.171 17.102c0 0 0 0 4.977 0 0.458 0 0.743 0.226 0.743 0.737 0 0 0 0 0 4.301 0 0.055 0 0.055 0.059 0.055 0 0 0 0 0.458 0 0 0 0 0 0 1.247 0 0 0 0-1.201 0-0.516 0-0.743-0.226-0.743-0.737 0 0 0 0 0-4.356 0 0 0-0.058-0.059-0.058 0 0 0 0-2.289 0 0 0 0 0 0 5.151 0 0 0 0-1.373 0 0 0 0 0 0-5.151 0 0 0 0-0.571 0 0 0 0 0 0-1.189z"></path>
<path fill="#ed1c24" style="fill: var(--color2, #ed1c24)" d="M47.012 16.988l0.028 0.003v1.306l-0.028-0.007c-1.033 0-1.832 0.85-1.832 1.926 0 1.131 0.799 2.036 1.832 2.036l0.028-0.007v1.306l-0.028 0.003c-1.832 0-3.263-1.474-3.263-3.338 0-1.813 1.432-3.228 3.263-3.228z"></path>
<path fill="#ed1c24" style="fill: var(--color2, #ed1c24)" d="M47.039 16.992l0.657 0.062c1.539 0.295 2.633 1.576 2.633 3.163 0 1.631-1.095 2.964-2.633 3.269l-0.657 0.065v-1.306l0.726-0.151c0.685-0.308 1.136-1.032 1.136-1.878 0-0.809-0.451-1.487-1.136-1.775l-0.726-0.144v-1.306z"></path>
<path fill="#ed1c24" style="fill: var(--color2, #ed1c24)" d="M50.616 17.102c0 0 0 0 1.26 0 0.458 0 0.685 0.226 0.685 0.737 0 0 0 0 0 4.301 0 0.055 0 0.055 0.058 0.055 0 0 0 0 1.659 0 0 0 0 0 0-5.093 0 0 0 0 1.373 0 0 0 0 0 0 5.093 0 0 0 0 1.659 0 0.059 0 0.059 0 0.059-0.055 0 0 0 0 0-4.301 0-0.511 0.227-0.737 0.685-0.737 0 0 0 0 1.26 0 0 0 0 0 0 1.189 0 0 0 0-0.516 0-0.058 0-0.058 0.058-0.058 0.058s0 0 0 4.356c0 0.511-0.228 0.737-0.685 0.737 0 0 0 0-6.124 0-0.513 0-0.744-0.226-0.744-0.737 0 0 0 0 0-4.356 0 0 0-0.058-0.055-0.058 0 0 0 0-0.516 0 0 0 0 0 0-1.189z"></path>
<path fill="#ed1c24" style="fill: var(--color2, #ed1c24)" d="M60.398 17.102c0 0 0 0 4.292 0 0.516 0 0.688 0.226 0.688 0.679 0 0 0 0 0 1.076h-1.26c0 0 0 0 0-0.507 0-0.058 0-0.058-0.059-0.058 0 0 0 0-0.798 0 0 0 0 0 0 5.151 0 0 0 0-1.377 0 0 0 0 0 0-5.151 0 0 0 0-0.799 0-0.059 0-0.059 0-0.059 0.058 0 0 0 0 0 0.507 0 0 0 0-1.26 0 0 0 0 0 0-1.076 0-0.452 0.172-0.679 0.63-0.679z"></path>
<path fill="#ed1c24" style="fill: var(--color2, #ed1c24)" d="M67.152 17.102c0 0 0 0 0.578 0h0.107v1.813c-0.059 0.113-0.114 0.281-0.114 0.452 0 0 0 0-0.458 1.302 0 0 0 0 0.482 0h0.089v1.186h-0.31c-0.176 0-0.375 0-0.606 0 0 0 0 0-0.4 0.963-0.113 0.452-0.344 0.624-0.802 0.624 0 0 0 0-0.857 0 0 0 0 0 0-1.247 0 0 0 0 0.286 0 0.117 0 0.117 0 0.172-0.055 0 0 0 0 1.832-5.038z"></path>
<path fill="#ed1c24" style="fill: var(--color2, #ed1c24)" d="M67.836 17.102h0.685c0 0 0 0 1.835 5.038 0.055 0.055 0.055 0.055 0.172 0.055h0.227c0 0 0 0 0 1.247 0 0 0 0-0.802 0-0.458 0-0.685-0.171-0.802-0.624 0 0 0 0-0.399-0.963 0 0 0 0-0.771 0h-0.144v-1.186h0.571c0 0 0 0-0.458-1.302 0-0.171-0.055-0.339-0.113-0.452v-1.813z"></path>
<path fill="#ed1c24" style="fill: var(--color2, #ed1c24)" d="M28.352 11.649c0.065-0.021 0.151 0.021 0.238 0.134 0 0 0 0 3.89 3.79 0.227 0.226 0.227 0.569 0 0.737 0 0 0 0-3.89 3.849-0.086 0.113-0.172 0.14-0.238 0.106s-0.107-0.134-0.107-0.278v-8.091c0-0.141 0.041-0.226 0.107-0.247z"></path>
<path fill="#ed1c24" style="fill: var(--color2, #ed1c24)" d="M21.698 5.333h0.275l0.265 0.11c0 0 0 0 4.003 3.962 0.172 0.226 0.114 0.398-0.172 0.398 0 0 0 0-1.659 0-0.286 0-0.513 0.226-0.513 0.511 0 0 0 0 0 2.94 0 0.284-0.231 0.511-0.575 0.511 0 0 0 0-2.916 0-0.286 0-0.516-0.226-0.516-0.511 0 0 0 0 0-2.94 0-0.284-0.227-0.511-0.516-0.511h-1.773c-0.286 0-0.344-0.171-0.172-0.398 0 0 0 0 4.007-3.962l0.262-0.11z"></path>
<path fill="#ed1c24" style="fill: var(--color2, #ed1c24)" d="M15.426 11.563c0.072 0.034 0.117 0.134 0.117 0.278v8.259c0 0.144-0.045 0.23-0.117 0.257-0.069 0.027-0.169 0-0.286-0.086 0 0 0 0-3.948-3.962-0.227-0.168-0.227-0.511 0-0.737 0 0 0 0 3.948-3.903 0.117-0.113 0.217-0.14 0.286-0.106z"></path>
<path fill="#ed1c24" style="fill: var(--color2, #ed1c24)" d="M20.407 18.065c0 0 0 0 2.916 0 0.344 0 0.575 0.226 0.575 0.511 0 0 0 0 0 3.112 0 0.339 0.227 0.565 0.513 0.565h1.546c0.286 0 0.399 0.168 0.172 0.339 0 0 0 0-3.89 3.903-0.117 0.113-0.258 0.171-0.403 0.171-0.141 0-0.286-0.058-0.399-0.171 0 0 0 0-3.89-3.903-0.231-0.171-0.117-0.339 0.169-0.339 0 0 0 0 1.659 0 0.289 0 0.516-0.226 0.516-0.565 0 0 0 0 0-3.112 0-0.284 0.231-0.511 0.516-0.511z"></path>
</symbol>
</defs>
</svg>
